<?xml version="1.0" standalone="no"?>
<!DOCTYPE svg PUBLIC "-//W3C//DTD SVG 20010904//EN"
 "http://www.w3.org/TR/2001/REC-SVG-20010904/DTD/svg10.dtd">
<svg version="1.0" xmlns="http://www.w3.org/2000/svg"
 width="235.000000pt" height="235.000000pt" viewBox="0 0 235.000000 235.000000"
 preserveAspectRatio="xMidYMid meet">
<metadata>
Created by potrace 1.11, written by Peter Selinger 2001-2013
</metadata>
<g transform="translate(0.000000,235.000000) scale(0.100000,-0.100000)"
fill="#000000" stroke="none">
<path d="M471 2130 c-24 -11 -52 -30 -62 -41 -19 -22 -34 -73 -25 -87 3 -5 -1
-18 -9 -28 -21 -27 -18 -43 3 -18 9 12 33 27 53 33 21 7 46 20 58 30 38 33 67
131 39 131 -7 0 -33 -9 -57 -20z"/>
<path d="M1810 2126 c0 -35 22 -87 46 -107 11 -9 37 -22 59 -29 21 -7 47 -22
57 -34 9 -12 17 -16 18 -10 0 6 -6 17 -14 24 -9 7 -13 23 -11 40 6 53 -54 117
-127 135 -25 6 -28 5 -28 -19z"/>
<path d="M301 2064 c-32 -40 -33 -101 -2 -140 l20 -25 -27 -44 c-15 -24 -30
-45 -33 -45 -4 0 -10 11 -13 25 -8 33 -34 32 -42 -1 -5 -18 0 -34 14 -54 12
-15 18 -31 14 -34 -10 -11 -42 -99 -41 -116 0 -8 12 15 25 52 26 66 26 67 60
62 25 -3 40 2 54 16 12 12 18 25 15 30 -8 13 -42 13 -67 -1 -18 -10 -18 -7 6
33 15 23 30 49 34 55 6 10 16 10 44 1 20 -6 47 -8 61 -4 28 7 87 52 87 67 0
16 -47 21 -91 9 -79 -22 -74 -25 -74 51 0 83 -13 102 -44 63z"/>
<path d="M2010 2070 c-12 -22 -16 -112 -6 -129 7 -11 -29 -8 -67 8 -27 11 -82
9 -94 -3 -4 -3 6 -20 22 -36 33 -34 85 -48 122 -31 30 14 40 7 71 -48 l23 -40
-34 6 c-43 7 -54 -10 -27 -37 16 -16 28 -20 51 -15 27 6 31 4 48 -37 11 -23
23 -56 26 -71 l7 -28 -37 25 c-21 15 -47 26 -59 27 -12 0 -31 2 -43 5 -20 3
-21 1 -13 -20 26 -71 81 -112 135 -103 39 6 42 1 51 -115 l6 -73 -26 28 c-32
32 -46 34 -46 6 0 -31 31 -77 56 -83 46 -12 93 27 94 77 0 35 -12 34 -44 -4
l-26 -31 -1 44 c0 24 -2 54 -4 68 -16 96 -16 95 14 108 15 7 34 24 42 39 16
29 18 118 3 133 -13 13 -68 -45 -81 -84 -8 -27 -10 -26 -36 40 -17 43 -23 70
-16 73 15 5 29 46 22 70 -7 29 -31 26 -43 -4 -5 -14 -11 -25 -14 -25 -2 0 -16
20 -31 45 l-26 45 20 27 c27 33 27 88 1 131 -23 38 -26 38 -40 12z"/>
<path d="M563 1789 c-6 -6 -9 -19 -6 -29 4 -15 15 -19 60 -19 30 0 58 -2 61
-6 12 -11 8 -924 -3 -928 -5 -2 -32 -3 -60 -2 -36 0 -52 -4 -56 -15 -15 -36 0
-40 140 -40 l138 0 32 -49 c87 -135 243 -187 392 -131 69 25 146 95 128 116
-12 15 -18 13 -64 -29 -42 -39 -113 -67 -167 -67 -121 1 -209 85 -243 233 -15
66 -13 180 4 235 14 46 54 112 84 140 l25 24 26 -39 26 -39 -42 -82 c-36 -71
-42 -90 -42 -149 -1 -115 53 -189 138 -187 100 3 141 61 141 199 -1 91 -15
151 -57 242 -15 33 -17 46 -8 62 6 12 16 21 22 21 19 0 75 -40 92 -65 24 -36
20 -46 -14 -40 -25 4 -32 1 -42 -20 -24 -53 56 -110 95 -67 21 23 25 99 7 132
-15 30 -78 88 -102 96 -15 4 6 41 120 208 l137 203 3 -440 c1 -306 -1 -443 -9
-447 -5 -4 -35 -6 -65 -5 -53 1 -54 1 -54 -27 l0 -28 195 0 195 0 0 28 c0 28
-2 28 -47 27 -27 -1 -55 0 -63 2 -13 4 -15 62 -14 461 1 251 2 460 3 465 0 4
28 7 61 7 60 0 60 0 60 29 l0 30 -132 0 -133 1 -164 -245 c-91 -135 -168 -245
-173 -246 -45 -6 -49 -2 -201 241 l-154 245 -129 3 c-85 1 -133 -1 -141 -9z
m315 -326 l120 -192 -25 -16 c-67 -44 -126 -121 -153 -200 -16 -46 -19 -77
-16 -155 l4 -98 -32 2 -31 3 -3 433 c-1 265 1 430 7 425 5 -6 63 -96 129 -202z
m302 -518 c19 -54 18 -128 -1 -152 -14 -16 -53 -17 -80 -3 -57 31 -64 144 -14
245 l28 58 25 -49 c13 -26 32 -71 42 -99z"/>
<path d="M84 1714 c-3 -19 -4 -52 -1 -72 6 -34 13 -43 74 -92 8 -7 9 -19 3
-40 -11 -38 -10 -29 -10 -102 l0 -63 -26 33 c-31 39 -44 41 -44 6 0 -36 17
-63 46 -74 15 -6 24 -18 25 -32 2 -39 5 -71 13 -113 l8 -40 -39 37 c-38 37
-107 73 -122 64 -21 -13 10 -114 44 -146 13 -12 51 -32 85 -44 59 -20 62 -23
84 -77 l23 -56 -34 10 c-18 6 -36 7 -40 3 -12 -12 42 -57 72 -59 22 -2 36 -13
61 -52 l31 -50 -72 0 c-41 0 -77 -3 -81 -7 -9 -10 21 -54 52 -74 27 -18 101
-23 145 -10 20 6 31 3 45 -11 37 -37 58 -46 26 -12 -32 34 -32 37 -17 65 8 16
15 45 15 65 0 36 -45 139 -61 139 -18 0 -43 -54 -43 -96 -1 -47 -1 -47 -39 9
-24 36 -24 41 -11 73 11 26 11 39 2 59 -15 34 -27 32 -35 -6 -5 -28 -7 -29
-17 -13 -6 11 -16 35 -23 54 -12 33 -11 35 21 62 47 39 74 98 70 153 -4 52
-24 97 -40 87 -24 -16 -63 -80 -75 -122 -16 -56 -24 -67 -24 -32 -1 15 -4 56
-8 91 -8 62 -7 64 22 90 32 29 48 75 29 87 -6 4 -22 -5 -36 -22 l-25 -28 6 79
c8 108 10 113 58 109 30 -2 46 3 69 23 30 24 60 71 60 92 0 20 -92 -1 -129
-30 -28 -23 -37 -18 -46 22 -7 30 -59 99 -76 99 -4 0 -11 -16 -15 -36z"/>
<path d="M2053 1281 c-6 -10 -14 -38 -18 -63 -9 -58 17 -120 67 -164 l36 -32
-19 -42 c-11 -24 -18 -48 -16 -54 2 -5 13 15 26 46 21 52 25 56 61 61 84 11
150 83 150 162 0 33 -2 36 -22 29 -41 -12 -72 -32 -106 -65 l-34 -33 7 49 c3
28 8 65 11 83 2 18 0 31 -5 28 -5 -3 -9 -16 -9 -28 0 -13 -3 -45 -7 -73 -4
-27 -8 -55 -8 -62 -1 -25 -13 -3 -15 28 -3 36 -38 104 -69 131 -18 16 -19 16
-30 -1z"/>
<path d="M2049 954 c-6 -18 -6 -37 1 -59 11 -34 -4 -80 -36 -106 -13 -11 -14
-9 -10 13 5 27 -29 108 -45 108 -5 0 -20 -22 -34 -50 -28 -56 -33 -124 -10
-157 13 -19 12 -23 -17 -54 l-32 -33 -6 24 -6 24 -16 -22 c-9 -13 -14 -31 -11
-40 3 -12 -11 -29 -41 -52 -25 -18 -46 -35 -46 -37 0 -11 24 1 54 28 27 23 42
29 65 26 39 -6 64 19 32 31 -21 7 -20 9 13 41 31 30 37 32 68 23 79 -22 147 0
181 57 l18 30 -37 7 c-20 4 -58 4 -85 1 -45 -6 -48 -5 -34 9 9 9 25 34 36 55
16 32 25 39 50 39 19 0 39 10 57 27 30 30 19 41 -28 25 -29 -10 -30 -10 -41
29 -14 46 -26 49 -40 13z"/>
<path d="M489 644 c-1 -11 -1 -22 0 -27 1 -4 -10 -12 -24 -17 -14 -5 -25 -14
-25 -20 0 -10 6 -11 58 -14 15 0 44 -15 64 -31 l38 -30 -37 -13 c-52 -18 -62
-30 -39 -48 26 -19 57 -18 101 3 34 16 37 16 66 -1 17 -10 33 -16 36 -13 3 3
-9 13 -27 22 -26 13 -31 21 -26 40 8 32 -2 76 -24 105 -22 29 -29 24 -40 -24
-6 -26 -4 -41 8 -58 14 -20 11 -19 -23 7 -68 51 -75 59 -75 86 0 32 -29 63
-31 33z"/>
<path d="M1693 594 c-11 -17 -18 -47 -18 -76 0 -47 -1 -49 -45 -71 -25 -13
-52 -23 -60 -22 -27 2 -84 -33 -145 -89 -70 -65 -121 -86 -163 -66 l-27 13 33
9 c25 7 32 14 32 33 0 35 -35 52 -61 29 -29 -26 -24 -70 12 -106 27 -28 34
-30 76 -24 50 7 92 29 171 94 62 51 96 65 133 57 62 -14 84 -92 39 -140 -33
-35 -58 -33 -52 4 3 23 -1 32 -19 41 -20 11 -25 10 -41 -10 -23 -28 -23 -35 2
-60 31 -31 85 -27 121 9 24 25 29 38 29 78 0 54 -17 85 -61 112 l-28 17 34 18
c32 18 36 18 69 2 41 -20 76 -21 101 -3 25 19 12 34 -43 50 l-47 14 3 45 c5
60 -18 82 -45 42z"/>
<path d="M698 408 c-45 -26 -67 -67 -62 -117 6 -68 43 -101 110 -101 31 0 67
46 54 70 -14 26 -40 33 -60 15 -19 -17 -20 -31 -7 -52 13 -20 -25 -15 -50 6
-58 49 -21 153 51 146 42 -4 66 -16 135 -73 120 -97 207 -108 247 -31 19 37
12 74 -17 89 -27 15 -51 -5 -47 -39 2 -18 10 -27 26 -29 31 -5 28 -19 -7 -27
-40 -9 -86 14 -151 74 -95 89 -156 108 -222 69z"/>
</g>
</svg>
